G04*
G04 #@! TF.GenerationSoftware,Altium Limited,Altium Designer,20.2.7 (254)*
G04*
G04 Layer_Color=8421504*
%FSLAX44Y44*%
%MOMM*%
G71*
G04*
G04 #@! TF.SameCoordinates,BAD59D02-7682-4231-AD5D-2D7AA58F7FA9*
G04*
G04*
G04 #@! TF.FilePolarity,Positive*
G04*
G01*
G75*
%ADD15R,1.1500X1.8000*%
%ADD16R,0.3000X1.4500*%
%ADD17R,1.4500X0.3000*%
%ADD18R,1.1000X1.3000*%
%ADD19R,0.9500X2.6000*%
%ADD20R,4.9000X6.2000*%
%ADD21R,1.6000X1.4000*%
%ADD22R,1.2000X2.2000*%
%ADD23R,1.2000X1.4000*%
%ADD24R,0.7000X1.6000*%
%ADD25R,1.8000X1.1000*%
%ADD26R,1.8000X1.1500*%
%ADD27R,1.8000X1.0000*%
%ADD28R,1.0000X1.8000*%
%ADD29R,1.8000X1.2300*%
%ADD30R,1.2300X1.8000*%
%ADD31R,0.3500X0.5000*%
%ADD32R,0.8000X0.2500*%
%ADD33R,0.2500X0.8000*%
%ADD34R,2.7000X2.6000*%
D15*
X138250Y313750D02*
D03*
X168250D02*
D03*
X323000Y316500D02*
D03*
X353000D02*
D03*
X87000Y233500D02*
D03*
X117000D02*
D03*
X175000Y236500D02*
D03*
X145000D02*
D03*
X302500Y316250D02*
D03*
X272500D02*
D03*
D16*
X209000Y237500D02*
D03*
X214000D02*
D03*
X219000D02*
D03*
X224000D02*
D03*
X229000D02*
D03*
X234000D02*
D03*
X239000D02*
D03*
X244000D02*
D03*
X249000D02*
D03*
X254000D02*
D03*
X259000D02*
D03*
X264000D02*
D03*
Y153000D02*
D03*
X259000D02*
D03*
X254000D02*
D03*
X249000D02*
D03*
X244000D02*
D03*
X239000D02*
D03*
X234000D02*
D03*
X229000D02*
D03*
X224000D02*
D03*
X219000D02*
D03*
X214000D02*
D03*
X209000D02*
D03*
D17*
X278750Y222750D02*
D03*
Y217750D02*
D03*
Y212750D02*
D03*
Y207750D02*
D03*
Y202750D02*
D03*
Y197750D02*
D03*
Y192750D02*
D03*
Y187750D02*
D03*
Y182750D02*
D03*
Y177750D02*
D03*
Y172750D02*
D03*
Y167750D02*
D03*
X194250D02*
D03*
Y172750D02*
D03*
Y177750D02*
D03*
Y182750D02*
D03*
Y187750D02*
D03*
Y192750D02*
D03*
Y197750D02*
D03*
Y202750D02*
D03*
Y207750D02*
D03*
Y212750D02*
D03*
Y217750D02*
D03*
Y222750D02*
D03*
D18*
X163100Y269220D02*
D03*
X164103Y292062D02*
D03*
X183174Y269217D02*
D03*
X183011Y292108D02*
D03*
D19*
X204200Y347000D02*
D03*
X249800D02*
D03*
X330850Y347500D02*
D03*
X285250D02*
D03*
D20*
X227000Y412000D02*
D03*
X308050Y412500D02*
D03*
D21*
X162340Y195252D02*
D03*
D22*
X171340Y99253D02*
D03*
X16340Y99253D02*
D03*
D23*
Y194252D02*
D03*
D24*
X28340Y200252D02*
D03*
X39340D02*
D03*
X50340D02*
D03*
X61340D02*
D03*
X72340D02*
D03*
X83340D02*
D03*
X94340D02*
D03*
X105340D02*
D03*
X116340D02*
D03*
D25*
X50000Y292250D02*
D03*
X112000D02*
D03*
Y255250D02*
D03*
X50000D02*
D03*
D26*
X308000Y246750D02*
D03*
Y216750D02*
D03*
X224250Y259000D02*
D03*
Y289000D02*
D03*
X287250Y101250D02*
D03*
Y131250D02*
D03*
X362750Y212250D02*
D03*
Y182250D02*
D03*
X335250Y212000D02*
D03*
Y182000D02*
D03*
X238000Y28500D02*
D03*
Y58500D02*
D03*
X198500Y29250D02*
D03*
Y59250D02*
D03*
X314000Y63500D02*
D03*
Y93500D02*
D03*
X142250Y291750D02*
D03*
Y261750D02*
D03*
D27*
X341608Y63538D02*
D03*
Y93538D02*
D03*
X251892Y258962D02*
D03*
Y288962D02*
D03*
D28*
X47288Y314392D02*
D03*
X77288D02*
D03*
D29*
X238400Y316756D02*
D03*
D03*
X212201D02*
D03*
D30*
X177244Y410900D02*
D03*
D03*
Y384701D02*
D03*
D31*
X242250Y76250D02*
D03*
X235750D02*
D03*
X229250Y90750D02*
D03*
X235750D02*
D03*
X242250D02*
D03*
X248750D02*
D03*
X249000Y76500D02*
D03*
X229250Y76250D02*
D03*
D32*
X361500Y132000D02*
D03*
Y137000D02*
D03*
Y142000D02*
D03*
Y147000D02*
D03*
Y152000D02*
D03*
Y157000D02*
D03*
X322500D02*
D03*
Y152000D02*
D03*
Y147000D02*
D03*
Y142000D02*
D03*
Y137000D02*
D03*
Y132000D02*
D03*
D33*
X354500Y164000D02*
D03*
X349500D02*
D03*
X344500D02*
D03*
X339500D02*
D03*
X334500D02*
D03*
X329500D02*
D03*
Y125000D02*
D03*
X334500D02*
D03*
X339500D02*
D03*
X344500D02*
D03*
X349500D02*
D03*
X354500D02*
D03*
D34*
X342000Y144500D02*
D03*
M02*
