G04*
G04 #@! TF.GenerationSoftware,Altium Limited,Altium Designer,20.2.7 (254)*
G04*
G04 Layer_Physical_Order=1*
G04 Layer_Color=255*
%FSLAX44Y44*%
%MOMM*%
G71*
G04*
G04 #@! TF.SameCoordinates,BAD59D02-7682-4231-AD5D-2D7AA58F7FA9*
G04*
G04*
G04 #@! TF.FilePolarity,Positive*
G04*
G01*
G75*
%ADD15R,1.1500X1.8000*%
%ADD16R,0.3000X1.4500*%
%ADD17R,1.4500X0.3000*%
%ADD18R,1.1000X1.3000*%
%ADD19R,0.9500X2.6000*%
%ADD20R,4.9000X6.2000*%
%ADD21R,1.6000X1.4000*%
%ADD22R,1.2000X2.2000*%
%ADD23R,1.2000X1.4000*%
%ADD24R,0.7000X1.6000*%
%ADD25R,1.8000X1.1000*%
%ADD26R,1.8000X1.1500*%
%ADD27R,1.8000X1.0000*%
%ADD28R,1.0000X1.8000*%
%ADD29R,1.8000X1.2300*%
%ADD30R,1.2300X1.8000*%
%ADD31R,0.3500X0.5000*%
%ADD32R,0.8000X0.2500*%
%ADD33R,0.2500X0.8000*%
%ADD34R,2.7000X2.6000*%
%ADD57C,0.3000*%
%ADD58C,0.8000*%
%ADD59C,0.5000*%
%ADD60C,1.7000*%
%ADD61R,1.7000X1.7000*%
%ADD62R,1.7000X1.7000*%
%ADD63C,2.0000*%
%ADD64C,0.6000*%
G36*
X457940Y2060D02*
X438657D01*
X438469Y3330D01*
X439745Y3717D01*
X442792Y5346D01*
X445463Y7537D01*
X447655Y10208D01*
X449283Y13255D01*
X450286Y16562D01*
X450625Y20000D01*
X450286Y23438D01*
X449283Y26745D01*
X447655Y29792D01*
X445463Y32463D01*
X442792Y34655D01*
X441379Y35410D01*
X441697Y36680D01*
X444020D01*
Y56720D01*
X428335D01*
X401829Y83225D01*
Y179500D01*
X401595Y180678D01*
X400927Y181677D01*
X378527Y204077D01*
X377528Y204745D01*
X376350Y204979D01*
X320921D01*
X319743Y204745D01*
X318744Y204077D01*
X288693Y174027D01*
X287520Y174513D01*
Y184730D01*
Y194730D01*
Y204730D01*
Y215770D01*
X279048D01*
X278750Y215829D01*
X260000D01*
X258822Y215595D01*
X257823Y214927D01*
X257712Y214816D01*
X257500Y214859D01*
X255736Y214508D01*
X254241Y213509D01*
X253242Y212014D01*
X252892Y210250D01*
X253242Y208486D01*
X254241Y206991D01*
X255736Y205992D01*
X257500Y205641D01*
X259264Y205992D01*
X260759Y206991D01*
X261758Y208486D01*
X261993Y209671D01*
X269980D01*
Y200829D01*
X259312D01*
X258134Y200595D01*
X257134Y199927D01*
X255139Y197932D01*
X254250Y198109D01*
X252486Y197758D01*
X250991Y196759D01*
X249992Y195264D01*
X249641Y193500D01*
X249992Y191736D01*
X250991Y190241D01*
X252486Y189242D01*
X254250Y188892D01*
X256014Y189242D01*
X257509Y190241D01*
X258508Y191736D01*
X258720Y192804D01*
X260587Y194671D01*
X262907D01*
X263393Y193498D01*
X253549Y183653D01*
X251418D01*
X250514Y184258D01*
X248750Y184609D01*
X246986Y184258D01*
X245491Y183259D01*
X244492Y181764D01*
X244142Y180000D01*
X244492Y178236D01*
X245491Y176741D01*
X246986Y175742D01*
X248750Y175392D01*
X250514Y175742D01*
X252009Y176741D01*
X252512Y177495D01*
X254824D01*
X256002Y177729D01*
X257001Y178397D01*
X268276Y189671D01*
X269980D01*
Y184730D01*
Y174730D01*
Y164730D01*
X278453D01*
X278750Y164671D01*
X286771D01*
X287068Y164730D01*
X287520D01*
Y164820D01*
X287949Y164905D01*
X288948Y165573D01*
X304357Y180982D01*
X305531Y180496D01*
Y172289D01*
X305351Y172169D01*
X304352Y170674D01*
X304001Y168910D01*
X304352Y167146D01*
X305351Y165651D01*
X305531Y165531D01*
Y150635D01*
X293416Y138520D01*
X283298D01*
X283000Y138579D01*
X275026D01*
X267079Y146525D01*
Y153000D01*
X267020Y153297D01*
Y161770D01*
X260980D01*
Y153297D01*
X260921Y153000D01*
Y145250D01*
X260980Y144953D01*
Y144230D01*
X261124D01*
X261155Y144072D01*
X261823Y143073D01*
X266649Y138247D01*
X266164Y136936D01*
X265473Y136882D01*
X257079Y145275D01*
Y153000D01*
X257020Y153297D01*
Y161770D01*
X227079D01*
Y167269D01*
X229427Y169617D01*
X230095Y170616D01*
X230329Y171794D01*
Y182371D01*
X230509Y182491D01*
X231508Y183986D01*
X231859Y185750D01*
X231508Y187514D01*
X230509Y189009D01*
X229014Y190008D01*
X227250Y190359D01*
X225486Y190008D01*
X223991Y189009D01*
X222992Y187514D01*
X222642Y185750D01*
X222992Y183986D01*
X223991Y182491D01*
X224171Y182371D01*
Y176183D01*
X222901Y175798D01*
X222259Y176759D01*
X220764Y177758D01*
X219000Y178109D01*
X218696Y178048D01*
X218441Y178287D01*
X217978Y179200D01*
X218448Y179904D01*
X218682Y181082D01*
Y190768D01*
X218862Y190888D01*
X219861Y192383D01*
X220212Y194147D01*
X219861Y195911D01*
X218862Y197406D01*
X217367Y198405D01*
X216273Y198622D01*
X215855Y200000D01*
X235525Y219671D01*
X284500D01*
X284797Y219730D01*
X287520D01*
Y221416D01*
X302677Y236573D01*
X303345Y237572D01*
X303579Y238750D01*
Y239480D01*
X318520D01*
Y254020D01*
X297480D01*
Y242798D01*
X297421Y242500D01*
Y240025D01*
X283225Y225829D01*
X212119D01*
Y231750D01*
X212079Y231951D01*
Y243250D01*
X212020Y243547D01*
Y246270D01*
X209298D01*
X209000Y246329D01*
X200249D01*
X200109Y246500D01*
X199758Y248264D01*
X198759Y249759D01*
X197264Y250758D01*
X195500Y251109D01*
X193736Y250758D01*
X192241Y249759D01*
X191242Y248264D01*
X190891Y246500D01*
X191242Y244736D01*
X192241Y243241D01*
X192695Y242938D01*
X192820Y241674D01*
X191243Y240097D01*
X190575Y239098D01*
X190341Y237920D01*
Y227834D01*
X190499Y227040D01*
X189756Y225770D01*
X185480D01*
Y214730D01*
Y204513D01*
X184307Y204027D01*
X182329Y206005D01*
Y232250D01*
X182270Y232547D01*
Y247020D01*
X182889Y248034D01*
X193025Y258171D01*
X201996D01*
X209465Y250701D01*
X210053Y249822D01*
X211822Y248053D01*
X212701Y247465D01*
X215921Y244245D01*
Y237500D01*
X215980Y237203D01*
Y228730D01*
X267020D01*
Y237203D01*
X267079Y237500D01*
Y260475D01*
X274288Y267684D01*
X274500Y267642D01*
X276264Y267992D01*
X277759Y268991D01*
X278758Y270486D01*
X279109Y272250D01*
X278758Y274014D01*
X277759Y275509D01*
X276264Y276508D01*
X274500Y276859D01*
X272736Y276508D01*
X271241Y275509D01*
X270242Y274014D01*
X269891Y272250D01*
X269934Y272038D01*
X263095Y265200D01*
X262412Y265482D01*
Y265482D01*
X241372D01*
Y256797D01*
X237884Y253309D01*
X234770D01*
Y266270D01*
X221689D01*
X209378Y278581D01*
Y298750D01*
X208950Y300904D01*
X207730Y302730D01*
X191980Y318480D01*
X190154Y319700D01*
X188000Y320128D01*
X175520D01*
Y324270D01*
X160980D01*
Y303230D01*
X172202D01*
X172500Y303171D01*
X183865D01*
X191254Y295782D01*
Y277745D01*
X190194Y277237D01*
X178822D01*
X178132Y278507D01*
X178429Y279999D01*
X178078Y281763D01*
X177079Y283258D01*
X175584Y284257D01*
X175183Y284337D01*
X171123Y288397D01*
Y300082D01*
X157083D01*
Y288397D01*
X148823Y280137D01*
X148155Y279138D01*
X147921Y277960D01*
Y269020D01*
X131730D01*
Y260288D01*
X130460Y259650D01*
X130064Y259944D01*
Y341786D01*
X129830Y342965D01*
X129162Y343963D01*
X128163Y344631D01*
X126985Y344865D01*
X110989D01*
X70944Y384910D01*
X71762Y386884D01*
X72106Y389500D01*
X71762Y392116D01*
X70753Y394553D01*
X69146Y396646D01*
X67053Y398252D01*
X64616Y399262D01*
X62000Y399607D01*
X59384Y399262D01*
X56947Y398252D01*
X54854Y396646D01*
X53248Y394553D01*
X52238Y392116D01*
X51894Y389500D01*
X52238Y386884D01*
X53248Y384447D01*
X54854Y382354D01*
X56947Y380748D01*
X59384Y379738D01*
X62000Y379394D01*
X64616Y379738D01*
X66590Y380556D01*
X107537Y339609D01*
X108536Y338941D01*
X109714Y338707D01*
X123906D01*
Y257994D01*
X124140Y256816D01*
X124808Y255817D01*
X130988Y249637D01*
X130570Y248259D01*
X130410Y248227D01*
X128915Y247228D01*
X127916Y245733D01*
X127565Y243969D01*
X127916Y242206D01*
X128915Y240711D01*
X129421Y240373D01*
Y229979D01*
X129655Y228801D01*
X130323Y227802D01*
X142177Y215947D01*
X143176Y215280D01*
X144355Y215045D01*
X158100D01*
X170671Y202475D01*
Y201250D01*
X170905Y200072D01*
X171573Y199073D01*
X180073Y190573D01*
X181072Y189905D01*
X182250Y189671D01*
X194250D01*
X194548Y189730D01*
X203020D01*
Y199820D01*
X203449Y199905D01*
X204448Y200573D01*
X206697Y202822D01*
X207365Y203821D01*
X207599Y204999D01*
Y219195D01*
X207616Y219218D01*
X208815Y219902D01*
X208869Y219896D01*
X210000Y219671D01*
X225157D01*
X225643Y218498D01*
X206386Y199240D01*
X205718Y198241D01*
X205484Y197063D01*
Y190318D01*
X200996Y185829D01*
X185250D01*
X184072Y185595D01*
X183073Y184927D01*
X178475Y180329D01*
X160500D01*
X159322Y180095D01*
X158323Y179427D01*
X150668Y171773D01*
X150404Y171950D01*
X148250Y172378D01*
X146096Y171950D01*
X144270Y170730D01*
X143050Y168904D01*
X142622Y166750D01*
Y165250D01*
X143050Y163096D01*
X144270Y161270D01*
X146096Y160050D01*
X146907Y159889D01*
X147275Y158674D01*
X134913Y146312D01*
X112365D01*
X111691Y146985D01*
X111145Y147802D01*
X107919Y151028D01*
Y190732D01*
X110050D01*
X110360Y190732D01*
X111320D01*
X111630Y190732D01*
X121360D01*
Y209772D01*
X111630D01*
X111320Y209772D01*
X110360D01*
X110050Y209772D01*
X100630D01*
X100320Y209772D01*
X99360D01*
X99050Y209772D01*
X89844D01*
X88986Y210904D01*
X89250Y211622D01*
X104000D01*
X106154Y212050D01*
X107980Y213270D01*
X117690Y222980D01*
X124270D01*
Y244020D01*
X109730D01*
Y230939D01*
X101669Y222878D01*
X80331D01*
X64230Y238980D01*
X62404Y240200D01*
X60250Y240628D01*
X19041D01*
X12088Y247581D01*
Y341129D01*
X22940Y351980D01*
X27061D01*
X41660Y337381D01*
Y324912D01*
X40768D01*
Y303872D01*
X53808D01*
Y308764D01*
X62081D01*
X64235Y309192D01*
X66061Y310412D01*
X70747Y315099D01*
X71968Y316925D01*
X72396Y319078D01*
Y323284D01*
X83007D01*
X86020Y320270D01*
X87846Y319050D01*
X90000Y318622D01*
X92154Y319050D01*
X93980Y320270D01*
X95200Y322096D01*
X95628Y324250D01*
X95200Y326404D01*
X93980Y328230D01*
X89318Y332892D01*
X87492Y334112D01*
X85338Y334540D01*
X70001D01*
X67847Y334112D01*
X66022Y332892D01*
X62788Y329658D01*
X61568Y327832D01*
X61140Y325678D01*
Y321410D01*
X59750Y320020D01*
X53808D01*
Y324912D01*
X52916D01*
Y339712D01*
X52488Y341866D01*
X51267Y343692D01*
X35020Y359939D01*
Y372020D01*
X30628D01*
Y403169D01*
X34081Y406622D01*
X169573D01*
Y400381D01*
X184914D01*
Y405272D01*
X200980D01*
Y379480D01*
X253020D01*
Y444520D01*
X200980D01*
Y416529D01*
X184914D01*
Y421421D01*
X169573D01*
Y417878D01*
X31750D01*
X31470Y417822D01*
X31412Y417910D01*
X31012Y419026D01*
X33463Y421037D01*
X35655Y423708D01*
X37283Y426755D01*
X38286Y430062D01*
X38625Y433500D01*
X38286Y436939D01*
X37283Y440245D01*
X35655Y443292D01*
X33463Y445963D01*
X30792Y448155D01*
X27745Y449783D01*
X24439Y450786D01*
X21000Y451125D01*
X17562Y450786D01*
X14255Y449783D01*
X11208Y448155D01*
X8537Y445963D01*
X6345Y443292D01*
X4717Y440245D01*
X3714Y436939D01*
X3375Y433500D01*
X3714Y430062D01*
X4717Y426755D01*
X6345Y423708D01*
X8537Y421037D01*
X11208Y418845D01*
X14255Y417217D01*
X17562Y416214D01*
X21000Y415875D01*
X24439Y416214D01*
X26620Y416876D01*
X27293Y415753D01*
X21020Y409480D01*
X19800Y407654D01*
X19372Y405500D01*
Y372020D01*
X14980D01*
Y359939D01*
X3330Y348289D01*
X2060Y348815D01*
Y457940D01*
X457940D01*
Y2060D01*
D02*
G37*
G36*
X169477Y281333D02*
X169212Y279999D01*
X169563Y278236D01*
X170562Y276741D01*
X172057Y275742D01*
X173821Y275391D01*
X174884Y275602D01*
X176154Y274711D01*
Y265552D01*
X172321Y261719D01*
X171653Y260720D01*
X171447Y259684D01*
X171239Y259545D01*
X170240Y258050D01*
X169889Y256286D01*
X170079Y255331D01*
X170049Y255187D01*
X169119Y254088D01*
X153878D01*
X152770Y254480D01*
Y264915D01*
X153177Y265323D01*
X153845Y266322D01*
X154079Y267500D01*
Y276684D01*
X161437Y284042D01*
X166768D01*
X169477Y281333D01*
D02*
G37*
G36*
X156061Y247154D02*
X156175Y246660D01*
X155242Y245264D01*
X154892Y243500D01*
X155242Y241736D01*
X156241Y240241D01*
X157736Y239242D01*
X159500Y238892D01*
X161264Y239242D01*
X162759Y240241D01*
X162879Y240421D01*
X167730D01*
Y225980D01*
X176171D01*
Y207480D01*
X174901Y206954D01*
X161553Y220302D01*
X160554Y220969D01*
X159375Y221204D01*
X145630D01*
X135579Y231255D01*
Y240930D01*
X136432Y242206D01*
X136782Y243969D01*
X136432Y245733D01*
X135812Y246660D01*
X136491Y247930D01*
X155709D01*
X156061Y247154D01*
D02*
G37*
G36*
X352230Y188415D02*
Y179335D01*
X347573Y174677D01*
X346905Y173678D01*
X346671Y172500D01*
Y164250D01*
X346730Y163953D01*
Y159020D01*
X342270D01*
Y162710D01*
X342345Y162822D01*
X342579Y164000D01*
Y174730D01*
X345770D01*
Y189270D01*
X324730D01*
Y174730D01*
X336421D01*
Y164000D01*
X336655Y162822D01*
X336730Y162710D01*
Y159020D01*
X332270D01*
Y169520D01*
X326730D01*
Y159770D01*
X322548D01*
X322250Y159829D01*
X316000D01*
X314822Y159595D01*
X313823Y158927D01*
X312862Y157967D01*
X311689Y158453D01*
Y165531D01*
X311869Y165651D01*
X312868Y167146D01*
X313219Y168910D01*
X312868Y170674D01*
X311869Y172169D01*
X311689Y172289D01*
Y181605D01*
X324005Y193921D01*
X346725D01*
X352230Y188415D01*
D02*
G37*
G36*
X316980Y151716D02*
Y144230D01*
Y134230D01*
X326980D01*
Y130520D01*
X326730D01*
Y119480D01*
X331421D01*
Y112025D01*
X320165Y100770D01*
X303480D01*
Y86230D01*
X324150D01*
X324786Y85070D01*
X323295Y83579D01*
X278276D01*
X269579Y92275D01*
Y118250D01*
X269345Y119428D01*
X268677Y120427D01*
X252427Y136677D01*
X252079Y136910D01*
Y139907D01*
X253253Y140393D01*
X261434Y132212D01*
X261392Y132000D01*
X261742Y130236D01*
X262741Y128741D01*
X264236Y127742D01*
X266000Y127392D01*
X267764Y127742D01*
X269259Y128741D01*
X270258Y130236D01*
X270609Y132000D01*
X270487Y132613D01*
X271377Y133195D01*
X271651Y133271D01*
X272572Y132655D01*
X273750Y132421D01*
X276730D01*
Y123980D01*
X297770D01*
Y134165D01*
X310787Y147183D01*
X310787Y147183D01*
X315807Y152202D01*
X316980Y151716D01*
D02*
G37*
G36*
X77360Y190732D02*
X77872Y189674D01*
Y165750D01*
Y119458D01*
X77751Y119410D01*
X76602Y119247D01*
X75759Y120509D01*
X75419Y120736D01*
Y190732D01*
X77360D01*
D02*
G37*
G36*
X365392Y56351D02*
X363073Y54032D01*
X352128Y64977D01*
Y70058D01*
X331088D01*
Y64977D01*
X315633Y49522D01*
X291744D01*
X289590Y49094D01*
X287764Y47874D01*
X270661Y30770D01*
X266539D01*
X251580Y45730D01*
X249754Y46950D01*
X247600Y47378D01*
X221581D01*
X216886Y52073D01*
X217372Y53247D01*
X227480D01*
Y51230D01*
X248520D01*
Y65770D01*
X247173D01*
Y72480D01*
X252270D01*
Y76165D01*
X253763Y77659D01*
X254802Y77865D01*
X255800Y78533D01*
X260217Y82949D01*
X260885Y83948D01*
X261119Y85127D01*
Y108564D01*
X261759Y108991D01*
X262151Y109578D01*
X263421Y109193D01*
Y91000D01*
X263655Y89822D01*
X264323Y88823D01*
X274823Y78323D01*
X275822Y77655D01*
X277000Y77421D01*
X324570D01*
X325749Y77655D01*
X326748Y78323D01*
X335443Y87018D01*
X352128D01*
Y100058D01*
X344687D01*
Y104672D01*
X347357Y107342D01*
X348735Y106924D01*
X348952Y105830D01*
X349951Y104335D01*
X351446Y103336D01*
X353210Y102985D01*
X354974Y103336D01*
X356469Y104335D01*
X357468Y105830D01*
X357819Y107594D01*
X357490Y109247D01*
X357579Y109696D01*
Y125000D01*
X357345Y126178D01*
X357270Y126290D01*
Y130520D01*
X357020D01*
Y134230D01*
X365392D01*
Y56351D01*
D02*
G37*
G36*
X99050Y190732D02*
X99360Y190732D01*
X100491Y190732D01*
X101761Y190396D01*
Y149753D01*
X101995Y148574D01*
X102663Y147575D01*
X106245Y143993D01*
X106791Y143176D01*
X108912Y141055D01*
X109911Y140388D01*
X111089Y140153D01*
X136189D01*
X137367Y140388D01*
X138366Y141055D01*
X166961Y169651D01*
X181622D01*
X181723Y169671D01*
X185480D01*
Y164730D01*
X193953D01*
X194250Y164671D01*
X202271D01*
X202568Y164730D01*
X203020D01*
Y164820D01*
X203449Y164905D01*
X204448Y165573D01*
X213276Y174400D01*
X214446Y173775D01*
X214391Y173500D01*
X214742Y171736D01*
X215741Y170241D01*
X215921Y170121D01*
Y161770D01*
X205980D01*
Y153297D01*
X205921Y153000D01*
Y129960D01*
X204991Y129339D01*
X203992Y127844D01*
X203641Y126080D01*
X203992Y124316D01*
X204991Y122821D01*
X206486Y121822D01*
X208250Y121472D01*
X210014Y121822D01*
X211509Y122821D01*
X212508Y124316D01*
X212736Y125464D01*
X214089Y125907D01*
X214660Y125336D01*
X214863Y125033D01*
X232671Y107225D01*
Y94770D01*
X232480D01*
Y88309D01*
X225566D01*
X198426Y115450D01*
X197427Y116117D01*
X196248Y116352D01*
X164089D01*
X162911Y116117D01*
X161912Y115450D01*
X151061Y104599D01*
X143077D01*
X100691Y146985D01*
X100145Y147802D01*
X96919Y151028D01*
Y190732D01*
X99050D01*
D02*
G37*
G36*
X346421Y115115D02*
X339431Y108125D01*
X338763Y107126D01*
X338529Y105948D01*
Y100058D01*
X331088D01*
Y91372D01*
X325680Y85964D01*
X324520Y86600D01*
Y96415D01*
X336677Y108573D01*
X337345Y109572D01*
X337579Y110750D01*
Y119480D01*
X346421D01*
Y115115D01*
D02*
G37*
G36*
X90761Y149753D02*
X90995Y148574D01*
X91663Y147575D01*
X95245Y143993D01*
X95791Y143176D01*
X139624Y99343D01*
X140623Y98675D01*
X141802Y98441D01*
X152337D01*
X153515Y98675D01*
X154514Y99343D01*
X165364Y110193D01*
X194973D01*
X222114Y83053D01*
X223113Y82385D01*
X224291Y82151D01*
X238751D01*
X239929Y82385D01*
X240928Y83053D01*
X242250Y84375D01*
X243572Y83053D01*
X244571Y82385D01*
X245749Y82151D01*
X246799D01*
X247449Y80881D01*
X247188Y80520D01*
X245730D01*
Y80520D01*
X245520Y80270D01*
X238980D01*
Y72230D01*
X241015D01*
Y65770D01*
X227480D01*
Y64503D01*
X223654D01*
X223128Y65773D01*
X229585Y72230D01*
X232520D01*
Y80270D01*
X225980D01*
Y77335D01*
X218475Y69829D01*
X208750D01*
X207572Y69595D01*
X206573Y68927D01*
X205905Y67928D01*
X205863Y67718D01*
X204666Y66520D01*
X187980D01*
Y51980D01*
X201061D01*
X215270Y37770D01*
X217096Y36550D01*
X219250Y36122D01*
X245269D01*
X258242Y23148D01*
X257765Y21878D01*
X248750D01*
X246596Y21450D01*
X244770Y20230D01*
X241419Y16878D01*
X181331D01*
X89128Y109081D01*
Y165750D01*
Y189542D01*
X89320Y190732D01*
X90761D01*
Y149753D01*
D02*
G37*
G36*
X12730Y231020D02*
X14556Y229800D01*
X16710Y229372D01*
X57919D01*
X74020Y213270D01*
X74020Y213270D01*
X76248Y211042D01*
X75722Y209772D01*
X67320D01*
Y190732D01*
X69261D01*
Y120522D01*
X69241Y120509D01*
X68242Y119014D01*
X67892Y117250D01*
X68242Y115486D01*
X69241Y113991D01*
X70736Y112992D01*
X72500Y112641D01*
X74264Y112992D01*
X75759Y113991D01*
X76602Y115253D01*
X77751Y115090D01*
X77872Y115042D01*
Y106750D01*
X78300Y104596D01*
X79520Y102770D01*
X175020Y7270D01*
X176846Y6050D01*
X179000Y5622D01*
X243750D01*
X245904Y6050D01*
X247730Y7270D01*
X251081Y10622D01*
X264100D01*
X264644Y10730D01*
X278620D01*
Y22811D01*
X294075Y38266D01*
X317964D01*
X320118Y38694D01*
X321944Y39914D01*
X339047Y57018D01*
X344169D01*
X358666Y42520D01*
X360492Y41300D01*
X362646Y40872D01*
X363500D01*
X365654Y41300D01*
X367480Y42520D01*
X375000Y50040D01*
X376220Y51866D01*
X376648Y54020D01*
Y160536D01*
X376220Y162690D01*
X375000Y164516D01*
X371766Y167750D01*
X370711Y168455D01*
X368378Y170788D01*
Y174980D01*
X373270D01*
Y189520D01*
X359835D01*
X351707Y197647D01*
X352193Y198821D01*
X375075D01*
X395671Y178225D01*
Y81950D01*
X395905Y80772D01*
X396573Y79773D01*
X423980Y52365D01*
Y36680D01*
X424304D01*
X424622Y35410D01*
X423208Y34655D01*
X420537Y32463D01*
X418345Y29792D01*
X416717Y26745D01*
X415714Y23438D01*
X415375Y20000D01*
X415714Y16562D01*
X416717Y13255D01*
X418345Y10208D01*
X420537Y7537D01*
X423208Y5346D01*
X426255Y3717D01*
X427532Y3330D01*
X427343Y2060D01*
X28407D01*
X28219Y3330D01*
X29495Y3717D01*
X32542Y5346D01*
X35213Y7537D01*
X37405Y10208D01*
X39033Y13255D01*
X40036Y16562D01*
X40375Y20000D01*
X40036Y23438D01*
X39033Y26745D01*
X37405Y29792D01*
X35213Y32463D01*
X32542Y34655D01*
X29495Y36283D01*
X26188Y37286D01*
X22750Y37625D01*
X19312Y37286D01*
X16005Y36283D01*
X12958Y34655D01*
X10287Y32463D01*
X8095Y29792D01*
X6467Y26745D01*
X5464Y23438D01*
X5125Y20000D01*
X5464Y16562D01*
X6467Y13255D01*
X8095Y10208D01*
X10287Y7537D01*
X12958Y5346D01*
X16005Y3717D01*
X17282Y3330D01*
X17093Y2060D01*
X2060D01*
Y239895D01*
X3330Y240421D01*
X12730Y231020D01*
D02*
G37*
%LPC*%
G36*
X413500Y397119D02*
X410493Y396724D01*
X407690Y395563D01*
X405284Y393716D01*
X403437Y391310D01*
X402277Y388507D01*
X401881Y385500D01*
X402277Y382493D01*
X402352Y382311D01*
X391689Y371648D01*
X323814D01*
X321660Y371220D01*
X319834Y370000D01*
X302962Y353128D01*
X292340D01*
Y360250D01*
X292143Y361241D01*
X291581Y362081D01*
X290741Y362643D01*
X289750Y362840D01*
X245500Y362840D01*
X244509Y362643D01*
X243669Y362081D01*
X227669Y346081D01*
X227107Y345241D01*
X226910Y344250D01*
Y322500D01*
X227107Y321509D01*
X227669Y320669D01*
X227880Y320527D01*
Y309086D01*
X245001D01*
X248419Y305669D01*
X249259Y305107D01*
X250250Y304910D01*
X278000D01*
X278991Y305107D01*
X279831Y305669D01*
X280581Y306419D01*
X281143Y307259D01*
X281340Y308250D01*
Y322177D01*
X291581Y332419D01*
X292143Y333259D01*
X292340Y334250D01*
Y341872D01*
X305294D01*
X307447Y342300D01*
X309273Y343520D01*
X323407Y357654D01*
X324580Y357168D01*
Y332980D01*
X329161D01*
X344620Y317520D01*
X345730Y316779D01*
Y305980D01*
X360270D01*
Y310872D01*
X385169D01*
X402352Y293689D01*
X402277Y293507D01*
X401881Y290500D01*
X402277Y287493D01*
X403437Y284690D01*
X405284Y282284D01*
X407690Y280437D01*
X407872Y280362D01*
Y172600D01*
X408300Y170446D01*
X409520Y168620D01*
X424980Y153161D01*
Y141080D01*
X429372D01*
Y125955D01*
X429800Y123801D01*
X431020Y121975D01*
X443412Y109584D01*
Y89471D01*
X435897Y81957D01*
X434000Y82206D01*
X431384Y81862D01*
X428947Y80852D01*
X426854Y79246D01*
X425248Y77153D01*
X424238Y74716D01*
X423894Y72100D01*
X424238Y69484D01*
X425248Y67047D01*
X426854Y64954D01*
X428947Y63348D01*
X431384Y62338D01*
X434000Y61994D01*
X436616Y62338D01*
X439053Y63348D01*
X441146Y64954D01*
X442752Y67047D01*
X443762Y69484D01*
X444106Y72100D01*
X443857Y73997D01*
X453020Y83160D01*
X454240Y84986D01*
X454668Y87140D01*
Y111915D01*
X454240Y114069D01*
X453020Y115895D01*
X440628Y128286D01*
Y141080D01*
X445020D01*
Y161120D01*
X432939D01*
X419128Y174931D01*
Y280362D01*
X419310Y280437D01*
X421716Y282284D01*
X423563Y284690D01*
X424724Y287493D01*
X425120Y290500D01*
X424724Y293507D01*
X423563Y296310D01*
X421716Y298716D01*
X419310Y300563D01*
X416507Y301723D01*
X413500Y302120D01*
X410493Y301723D01*
X410311Y301648D01*
X391480Y320480D01*
X389654Y321700D01*
X387500Y322128D01*
X360270D01*
Y327020D01*
X351794D01*
X351250Y327128D01*
X350931D01*
X337120Y340939D01*
Y360392D01*
X394020D01*
X396174Y360820D01*
X398000Y362040D01*
X410311Y374352D01*
X410493Y374277D01*
X413500Y373881D01*
X416507Y374277D01*
X419310Y375437D01*
X421716Y377284D01*
X423563Y379690D01*
X424724Y382493D01*
X425120Y385500D01*
X424724Y388507D01*
X423563Y391310D01*
X421716Y393716D01*
X419310Y395563D01*
X416507Y396724D01*
X413500Y397119D01*
D02*
G37*
G36*
X25000Y346707D02*
X22384Y346362D01*
X19947Y345353D01*
X17854Y343746D01*
X16248Y341653D01*
X15238Y339216D01*
X14894Y336600D01*
X15238Y333984D01*
X16248Y331547D01*
X17854Y329454D01*
X19947Y327848D01*
X22384Y326838D01*
X25000Y326494D01*
X27616Y326838D01*
X30053Y327848D01*
X32146Y329454D01*
X33753Y331547D01*
X34762Y333984D01*
X35106Y336600D01*
X34762Y339216D01*
X33753Y341653D01*
X32146Y343746D01*
X30053Y345353D01*
X27616Y346362D01*
X25000Y346707D01*
D02*
G37*
G36*
X122520Y299270D02*
X101480D01*
Y295329D01*
X96077D01*
X96009Y295431D01*
X94514Y296430D01*
X92750Y296781D01*
X90986Y296430D01*
X89491Y295431D01*
X89423Y295329D01*
X60520D01*
Y299270D01*
X39480D01*
Y288547D01*
X39421Y288250D01*
Y279175D01*
X29590Y269344D01*
X27616Y270162D01*
X25000Y270506D01*
X22384Y270162D01*
X19947Y269153D01*
X17854Y267546D01*
X16248Y265453D01*
X15238Y263016D01*
X14894Y260400D01*
X15238Y257784D01*
X16248Y255347D01*
X17854Y253254D01*
X19947Y251648D01*
X22384Y250638D01*
X25000Y250294D01*
X27616Y250638D01*
X30053Y251648D01*
X32146Y253254D01*
X33753Y255347D01*
X34762Y257784D01*
X35106Y260400D01*
X34762Y263016D01*
X33944Y264990D01*
X44677Y275723D01*
X45345Y276722D01*
X45579Y277900D01*
Y285230D01*
X60520D01*
Y289171D01*
X89319D01*
X89491Y288913D01*
X90986Y287915D01*
X92750Y287564D01*
X94514Y287915D01*
X96009Y288913D01*
X96181Y289171D01*
X101480D01*
Y285230D01*
X122520D01*
Y299270D01*
D02*
G37*
G36*
X25000Y295907D02*
X22384Y295562D01*
X19947Y294552D01*
X17854Y292946D01*
X16248Y290853D01*
X15238Y288416D01*
X14894Y285800D01*
X15238Y283184D01*
X16248Y280747D01*
X17854Y278654D01*
X19947Y277048D01*
X22384Y276038D01*
X25000Y275694D01*
X27616Y276038D01*
X30053Y277048D01*
X32146Y278654D01*
X33753Y280747D01*
X34762Y283184D01*
X35106Y285800D01*
X34762Y288416D01*
X33753Y290853D01*
X32146Y292946D01*
X30053Y294552D01*
X27616Y295562D01*
X25000Y295907D01*
D02*
G37*
G36*
X435000Y237407D02*
X432384Y237062D01*
X429947Y236052D01*
X427854Y234446D01*
X426248Y232353D01*
X425238Y229916D01*
X424894Y227300D01*
X425238Y224684D01*
X426248Y222247D01*
X427854Y220154D01*
X429947Y218548D01*
X432384Y217538D01*
X435000Y217194D01*
X437616Y217538D01*
X440053Y218548D01*
X442146Y220154D01*
X443753Y222247D01*
X444762Y224684D01*
X445107Y227300D01*
X444762Y229916D01*
X443753Y232353D01*
X442146Y234446D01*
X440053Y236052D01*
X437616Y237062D01*
X435000Y237407D01*
D02*
G37*
G36*
Y212006D02*
X432384Y211662D01*
X429947Y210653D01*
X427854Y209046D01*
X426248Y206953D01*
X425238Y204516D01*
X424894Y201900D01*
X425238Y199284D01*
X426248Y196847D01*
X427854Y194754D01*
X429947Y193148D01*
X432384Y192138D01*
X435000Y191794D01*
X437616Y192138D01*
X440053Y193148D01*
X442146Y194754D01*
X443753Y196847D01*
X444762Y199284D01*
X445107Y201900D01*
X444762Y204516D01*
X443753Y206953D01*
X442146Y209046D01*
X440053Y210653D01*
X437616Y211662D01*
X435000Y212006D01*
D02*
G37*
%LPD*%
G36*
X289750Y360250D02*
X289750Y334250D01*
X278750Y323250D01*
Y308250D01*
X278000Y307500D01*
X250250D01*
X235250Y322500D01*
X229500D01*
Y344250D01*
X245500Y360250D01*
X289750Y360250D01*
D02*
G37*
%LPC*%
G36*
X124340Y102353D02*
X122502Y102111D01*
X120790Y101402D01*
X119319Y100274D01*
X118191Y98803D01*
X117481Y97090D01*
X117239Y95253D01*
X117481Y93415D01*
X118191Y91702D01*
X119319Y90232D01*
X120790Y89103D01*
X122502Y88394D01*
X124340Y88152D01*
X126178Y88394D01*
X127890Y89103D01*
X129361Y90232D01*
X130490Y91702D01*
X131199Y93415D01*
X131441Y95253D01*
X131199Y97090D01*
X130490Y98803D01*
X129361Y100274D01*
X127890Y101402D01*
X126178Y102111D01*
X124340Y102353D01*
D02*
G37*
G36*
X50905Y226031D02*
X49142Y225680D01*
X47646Y224681D01*
X46648Y223186D01*
X46297Y221422D01*
X46648Y219659D01*
X47544Y218318D01*
Y209772D01*
X45630D01*
X45320Y209772D01*
X44360D01*
X44050Y209772D01*
X34320D01*
Y190732D01*
X44050D01*
X44360Y190732D01*
X45320D01*
X45630Y190732D01*
X55360D01*
Y209772D01*
X53702D01*
Y217855D01*
X54164Y218164D01*
X55163Y219659D01*
X55514Y221422D01*
X55163Y223186D01*
X54164Y224681D01*
X52669Y225680D01*
X50905Y226031D01*
D02*
G37*
G36*
X44340Y102353D02*
X42502Y102111D01*
X40790Y101402D01*
X39319Y100274D01*
X38191Y98803D01*
X37481Y97090D01*
X37239Y95253D01*
X37481Y93415D01*
X38191Y91702D01*
X39319Y90232D01*
X40790Y89103D01*
X42502Y88394D01*
X44340Y88152D01*
X46178Y88394D01*
X47890Y89103D01*
X49361Y90232D01*
X50490Y91702D01*
X51199Y93415D01*
X51441Y95253D01*
X51199Y97090D01*
X50490Y98803D01*
X49361Y100274D01*
X47890Y101402D01*
X46178Y102111D01*
X44340Y102353D01*
D02*
G37*
G36*
X344800Y30856D02*
X342184Y30512D01*
X339747Y29502D01*
X337654Y27896D01*
X336048Y25803D01*
X335038Y23366D01*
X334694Y20750D01*
X335038Y18134D01*
X336048Y15697D01*
X337654Y13604D01*
X339747Y11998D01*
X342184Y10988D01*
X344800Y10644D01*
X347416Y10988D01*
X349853Y11998D01*
X351946Y13604D01*
X353553Y15697D01*
X354562Y18134D01*
X354907Y20750D01*
X354562Y23366D01*
X353553Y25803D01*
X351946Y27896D01*
X349853Y29502D01*
X347416Y30512D01*
X344800Y30856D01*
D02*
G37*
G36*
X319400D02*
X316784Y30512D01*
X314347Y29502D01*
X312254Y27896D01*
X310648Y25803D01*
X309638Y23366D01*
X309294Y20750D01*
X309638Y18134D01*
X310648Y15697D01*
X312254Y13604D01*
X314347Y11998D01*
X316784Y10988D01*
X319400Y10644D01*
X322016Y10988D01*
X324453Y11998D01*
X326546Y13604D01*
X328153Y15697D01*
X329162Y18134D01*
X329506Y20750D01*
X329162Y23366D01*
X328153Y25803D01*
X326546Y27896D01*
X324453Y29502D01*
X322016Y30512D01*
X319400Y30856D01*
D02*
G37*
%LPD*%
D15*
X138250Y313750D02*
D03*
X168250D02*
D03*
X323000Y316500D02*
D03*
X353000D02*
D03*
X87000Y233500D02*
D03*
X117000D02*
D03*
X175000Y236500D02*
D03*
X145000D02*
D03*
X302500Y316250D02*
D03*
X272500D02*
D03*
D16*
X209000Y237500D02*
D03*
X214000D02*
D03*
X219000D02*
D03*
X224000D02*
D03*
X229000D02*
D03*
X234000D02*
D03*
X239000D02*
D03*
X244000D02*
D03*
X249000D02*
D03*
X254000D02*
D03*
X259000D02*
D03*
X264000D02*
D03*
Y153000D02*
D03*
X259000D02*
D03*
X254000D02*
D03*
X249000D02*
D03*
X244000D02*
D03*
X239000D02*
D03*
X234000D02*
D03*
X229000D02*
D03*
X224000D02*
D03*
X219000D02*
D03*
X214000D02*
D03*
X209000D02*
D03*
D17*
X278750Y222750D02*
D03*
Y217750D02*
D03*
Y212750D02*
D03*
Y207750D02*
D03*
Y202750D02*
D03*
Y197750D02*
D03*
Y192750D02*
D03*
Y187750D02*
D03*
Y182750D02*
D03*
Y177750D02*
D03*
Y172750D02*
D03*
Y167750D02*
D03*
X194250D02*
D03*
Y172750D02*
D03*
Y177750D02*
D03*
Y182750D02*
D03*
Y187750D02*
D03*
Y192750D02*
D03*
Y197750D02*
D03*
Y202750D02*
D03*
Y207750D02*
D03*
Y212750D02*
D03*
Y217750D02*
D03*
Y222750D02*
D03*
D18*
X163100Y269220D02*
D03*
X164103Y292062D02*
D03*
X183174Y269217D02*
D03*
X183011Y292108D02*
D03*
D19*
X204200Y347000D02*
D03*
X249800D02*
D03*
X330850Y347500D02*
D03*
X285250D02*
D03*
D20*
X227000Y412000D02*
D03*
X308050Y412500D02*
D03*
D21*
X162340Y195252D02*
D03*
D22*
X171340Y99253D02*
D03*
X16340Y99253D02*
D03*
D23*
Y194252D02*
D03*
D24*
X28340Y200252D02*
D03*
X39340D02*
D03*
X50340D02*
D03*
X61340D02*
D03*
X72340D02*
D03*
X83340D02*
D03*
X94340D02*
D03*
X105340D02*
D03*
X116340D02*
D03*
D25*
X50000Y292250D02*
D03*
X112000D02*
D03*
Y255250D02*
D03*
X50000D02*
D03*
D26*
X308000Y246750D02*
D03*
Y216750D02*
D03*
X224250Y259000D02*
D03*
Y289000D02*
D03*
X287250Y101250D02*
D03*
Y131250D02*
D03*
X362750Y212250D02*
D03*
Y182250D02*
D03*
X335250Y212000D02*
D03*
Y182000D02*
D03*
X238000Y28500D02*
D03*
Y58500D02*
D03*
X198500Y29250D02*
D03*
Y59250D02*
D03*
X314000Y63500D02*
D03*
Y93500D02*
D03*
X142250Y291750D02*
D03*
Y261750D02*
D03*
D27*
X341608Y63538D02*
D03*
Y93538D02*
D03*
X251892Y258962D02*
D03*
Y288962D02*
D03*
D28*
X47288Y314392D02*
D03*
X77288D02*
D03*
D29*
X238400Y316756D02*
D03*
D03*
X212201D02*
D03*
D30*
X177244Y410900D02*
D03*
D03*
Y384701D02*
D03*
D31*
X242250Y76250D02*
D03*
X235750D02*
D03*
X229250Y90750D02*
D03*
X235750D02*
D03*
X242250D02*
D03*
X248750D02*
D03*
X249000Y76500D02*
D03*
X229250Y76250D02*
D03*
D32*
X361500Y132000D02*
D03*
Y137000D02*
D03*
Y142000D02*
D03*
Y147000D02*
D03*
Y152000D02*
D03*
Y157000D02*
D03*
X322500D02*
D03*
Y152000D02*
D03*
Y147000D02*
D03*
Y142000D02*
D03*
Y137000D02*
D03*
Y132000D02*
D03*
D33*
X354500Y164000D02*
D03*
X349500D02*
D03*
X344500D02*
D03*
X339500D02*
D03*
X334500D02*
D03*
X329500D02*
D03*
Y125000D02*
D03*
X334500D02*
D03*
X339500D02*
D03*
X344500D02*
D03*
X349500D02*
D03*
X354500D02*
D03*
D34*
X342000Y144500D02*
D03*
D57*
X172500Y306250D02*
X185140D01*
X194333Y268623D02*
Y297057D01*
X185140Y306250D02*
X194333Y297057D01*
X174498Y256286D02*
Y259541D01*
X183174Y268217D01*
X179746Y249246D02*
X191750Y261250D01*
X171582Y249246D02*
X179746D01*
X169819Y251009D02*
X171582Y249246D01*
X133970Y251009D02*
X169819D01*
X126985Y257994D02*
X133970Y251009D01*
X235542Y70358D02*
X235712D01*
X235500Y70400D02*
X235542Y70358D01*
X238000Y58500D02*
X239844D01*
X244094Y62750D01*
X242250Y75500D02*
Y76250D01*
X244094Y62750D02*
Y73656D01*
X242250Y75500D02*
X244094Y73656D01*
X308610Y149360D02*
Y168910D01*
X322730Y197000D02*
X348000D01*
X308610Y168910D02*
Y182880D01*
X322730Y197000D01*
X348000D02*
X362750Y182250D01*
X349750Y172500D02*
X359500Y182250D01*
X349750Y164250D02*
Y172500D01*
X359500Y182250D02*
X362750D01*
X334250Y164250D02*
X334500Y164000D01*
X334250Y164250D02*
Y168771D01*
X332001Y171020D02*
X334250Y168771D01*
X324232Y171020D02*
X332001D01*
X323392Y170180D02*
X324232Y171020D01*
X322580Y170180D02*
X323392D01*
X316000Y156750D02*
X322250D01*
X308610Y149360D02*
X316000Y156750D01*
X198750Y243250D02*
X209000D01*
X286771Y167750D02*
X320921Y201900D01*
X376350D02*
X398750Y179500D01*
X320921Y201900D02*
X376350D01*
X235500Y76000D02*
X235750Y76250D01*
X235500Y70400D02*
Y76000D01*
X93840Y149753D02*
Y200252D01*
X238751Y85230D02*
X242250Y88729D01*
Y90750D01*
X224291Y85230D02*
X238751D01*
X196248Y113272D02*
X224291Y85230D01*
X132500Y229979D02*
Y243643D01*
X132174Y243969D02*
X132500Y243643D01*
X183174Y268217D02*
Y269217D01*
X170750Y243500D02*
X175000Y239250D01*
X159500Y243500D02*
X170750D01*
X132500Y229979D02*
X144355Y218125D01*
X175000Y236500D02*
Y239250D01*
X50000Y292250D02*
X112000D01*
X159375Y218125D02*
X173750Y203750D01*
X144355Y218125D02*
X159375D01*
X173750Y201250D02*
Y203750D01*
X179250Y204729D02*
Y232250D01*
Y204729D02*
X186229Y197750D01*
X182250Y192750D02*
X194250D01*
X173750Y201250D02*
X182250Y192750D01*
X209000Y231750D02*
Y237500D01*
X209040Y223710D02*
Y231750D01*
X194250Y222750D02*
Y227004D01*
X193420Y227834D02*
Y237920D01*
X209040Y223710D02*
X210000Y222750D01*
X193420Y237920D02*
X198750Y243250D01*
X200460Y230750D02*
X200478D01*
X193420Y227834D02*
X194250Y227004D01*
X200478Y230750D02*
X204520Y226708D01*
X209000Y237500D02*
Y243250D01*
X204520Y204999D02*
Y226708D01*
X202271Y202750D02*
X204520Y204999D01*
X195500Y246500D02*
X198750Y243250D01*
X210000Y222750D02*
X234250D01*
X164103Y291063D02*
X173821Y281345D01*
Y279999D02*
Y281345D01*
X50623Y200535D02*
Y221140D01*
X72340Y117410D02*
X72500Y117250D01*
X50340Y200252D02*
X50623Y200535D01*
Y221140D02*
X50905Y221422D01*
X72340Y117410D02*
Y200252D01*
X25000Y260400D02*
X28788D01*
X25000D02*
X42500Y277900D01*
Y288250D01*
X46500Y292250D01*
X50000D01*
X141802Y101520D02*
X152337D01*
X164089Y113272D01*
X196248D01*
X104840Y149753D02*
Y200252D01*
Y149753D02*
X108968Y145625D01*
X111089Y143232D02*
X136189D01*
X108968Y145354D02*
Y145625D01*
Y145354D02*
X111089Y143232D01*
X126985Y257994D02*
Y341786D01*
X175000Y236500D02*
X179250Y232250D01*
X168250Y310500D02*
Y313750D01*
Y310500D02*
X172500Y306250D01*
X224000Y168544D02*
X227250Y171794D01*
Y185750D01*
X257500Y210250D02*
X260000Y212750D01*
X194250Y167750D02*
X202271D01*
X215603Y181082D01*
X224000Y153000D02*
Y168544D01*
Y139331D02*
Y153000D01*
X219000D02*
Y173500D01*
Y134375D02*
Y153000D01*
X208563Y197063D02*
X234250Y222750D01*
X202271Y182750D02*
X208563Y189042D01*
X215603Y181082D02*
Y194147D01*
X194250Y182750D02*
X202271D01*
X208563Y189042D02*
Y197063D01*
X234250Y222750D02*
X278750D01*
X260000Y212750D02*
X278750D01*
Y222750D02*
X284500D01*
X194250Y202750D02*
X202271D01*
X287250Y131250D02*
X290500D01*
X308610Y149360D01*
X146750Y263250D02*
X151000Y267500D01*
Y277960D01*
X164103Y291063D01*
X186229Y197750D02*
X194250D01*
X148500Y165250D02*
X160500Y177250D01*
X185250Y182750D02*
X194250D01*
X181642Y172750D02*
X194250D01*
X136189Y143232D02*
X165686Y172730D01*
X160500Y177250D02*
X179750D01*
X185250Y182750D01*
X165686Y172730D02*
X181622D01*
X181642Y172750D01*
X148250Y165250D02*
X148500D01*
X191750Y261250D02*
X203271D01*
X353210Y107594D02*
Y108406D01*
X354500Y109696D02*
Y125000D01*
X353210Y108406D02*
X354500Y109696D01*
X398750Y81950D02*
Y179500D01*
Y81950D02*
X434000Y46700D01*
X109714Y341786D02*
X126985D01*
X62000Y389500D02*
X109714Y341786D01*
X201750Y59250D02*
X208750Y66250D01*
Y66750D01*
X219750D01*
X229250Y75500D02*
Y76250D01*
X229000Y75250D02*
X229250Y75500D01*
X228250Y75250D02*
X229000D01*
X219750Y66750D02*
X228250Y75250D01*
X97968Y145354D02*
X141802Y101520D01*
X242000Y90500D02*
X242250Y90750D01*
X209000Y126830D02*
Y153000D01*
X208250Y126080D02*
X209000Y126830D01*
X217040Y127210D02*
Y127310D01*
X214000Y130351D02*
Y153000D01*
Y130351D02*
X217040Y127310D01*
Y127210D02*
X235750Y108500D01*
X219000Y134375D02*
X248750Y104625D01*
X224000Y139331D02*
X232166Y131166D01*
X235750Y90750D02*
Y108500D01*
X203271Y261250D02*
X212230Y252291D01*
X214291Y250230D02*
X219000Y245521D01*
X213999Y250230D02*
X214291D01*
X212230Y251999D02*
Y252291D01*
Y251999D02*
X213999Y250230D01*
X284500Y222750D02*
X300500Y238750D01*
Y242500D01*
X304750Y246750D01*
X308000D01*
X264000Y237500D02*
Y261750D01*
X274500Y272250D01*
X278750Y167750D02*
X286771D01*
X267000Y192750D02*
X278750D01*
X254824Y180574D02*
X267000Y192750D01*
X249324Y180574D02*
X254824D01*
X248750Y180000D02*
X249324Y180574D01*
X259312Y197750D02*
X278750D01*
X255062Y193500D02*
X259312Y197750D01*
X254250Y193500D02*
X255062D01*
X254000Y144000D02*
X266000Y132000D01*
X254000Y144000D02*
Y153000D01*
X219000Y237500D02*
Y245521D01*
X97968Y145354D02*
Y145625D01*
X93840Y149753D02*
X97968Y145625D01*
X264000Y145250D02*
Y153000D01*
X283000Y135500D02*
X287250Y131250D01*
X273750Y135500D02*
X283000D01*
X264000Y145250D02*
X273750Y135500D01*
X250007Y134500D02*
X250250D01*
X249000Y135507D02*
Y153000D01*
Y135507D02*
X250007Y134500D01*
X266500Y91000D02*
Y118250D01*
X250250Y134500D02*
X266500Y118250D01*
Y91000D02*
X277000Y80500D01*
X324570D02*
X337608Y93538D01*
X277000Y80500D02*
X324570D01*
X337608Y93538D02*
X341608D01*
Y105948D01*
X349500Y113840D01*
Y125000D01*
X314000Y93500D02*
X317250D01*
X334500Y110750D01*
Y125000D01*
X339500Y164000D02*
Y177750D01*
X335250Y182000D02*
X339500Y177750D01*
X335250Y182000D02*
X335250D01*
X229480Y144499D02*
X250500Y123479D01*
Y109267D02*
X253520Y106247D01*
X250500Y109267D02*
Y123479D01*
X258040Y85127D02*
Y111790D01*
X258500Y112250D01*
X229000Y146371D02*
X229480Y145891D01*
Y144499D02*
Y145891D01*
X229000Y146371D02*
Y153000D01*
X253520Y86999D02*
Y106247D01*
X245749Y85230D02*
X251751D01*
X249000Y76500D02*
Y77250D01*
X252460Y80710D01*
X253623D01*
X258040Y85127D01*
X242250Y88729D02*
X245749Y85230D01*
X251751D02*
X253520Y86999D01*
X248750Y90750D02*
Y104625D01*
X229000Y237500D02*
Y245521D01*
X233709Y250230D01*
X239160D01*
X247892Y258962D01*
X251892D01*
D58*
X362750Y168456D02*
Y182250D01*
X341608Y63538D02*
X345608D01*
X337608D02*
X341608D01*
X83500Y165750D02*
Y200093D01*
X83340Y200252D02*
X83500Y200093D01*
X345608Y63538D02*
X362646Y46500D01*
X363500D01*
X317964Y43894D02*
X337608Y63538D01*
X291744Y43894D02*
X317964D01*
X203750Y276250D02*
X221000Y259000D01*
X188000Y314500D02*
X203750Y298750D01*
Y276250D02*
Y298750D01*
X221000Y259000D02*
X224250D01*
X6460Y245250D02*
Y343460D01*
Y245250D02*
X16710Y235000D01*
X60250D01*
X78000Y217250D01*
X82840Y212410D01*
X117000Y230250D02*
Y233500D01*
X104000Y217250D02*
X117000Y230250D01*
X78000Y217250D02*
X104000D01*
X82840Y200753D02*
X83340Y200252D01*
X83500Y106750D02*
Y165750D01*
X82840Y200753D02*
Y212410D01*
X83500Y106750D02*
X179000Y11250D01*
X168250Y313750D02*
X169000Y314500D01*
X188000D01*
X47288Y314392D02*
X62081D01*
X66768Y319078D01*
Y325678D01*
X70001Y328912D01*
X85338D01*
X90000Y324250D01*
X6460Y343460D02*
X25000Y362000D01*
X47288Y339712D01*
Y316546D02*
Y339712D01*
X25000Y362000D02*
Y405500D01*
X31750Y412250D01*
X148250Y165250D02*
Y166750D01*
X371020Y54020D02*
Y160536D01*
X367786Y163770D02*
X371020Y160536D01*
X362750Y168456D02*
X367436Y163770D01*
X363500Y46500D02*
X371020Y54020D01*
X367436Y163770D02*
X367786D01*
X175894Y412250D02*
X177244Y410900D01*
X31750Y412250D02*
X175894D01*
X264100Y16250D02*
X268600Y20750D01*
X248750Y16250D02*
X264100D01*
X243750Y11250D02*
X248750Y16250D01*
X179000Y11250D02*
X243750D01*
X268600Y20750D02*
X291744Y43894D01*
X202125Y58875D02*
X219250Y41750D01*
X202125Y58875D02*
X237625D01*
X198875D02*
X202125D01*
X198500Y59250D02*
X198875Y58875D01*
X237625D02*
X238000Y58500D01*
X219250Y41750D02*
X247600D01*
X268600Y20750D01*
X294000Y19901D02*
Y20750D01*
X241250Y28500D02*
X243000Y26750D01*
X238000Y28500D02*
X241250D01*
X435000Y125955D02*
Y151100D01*
Y125955D02*
X449040Y111915D01*
Y87140D02*
Y111915D01*
X434000Y72100D02*
X449040Y87140D01*
X413500Y172600D02*
Y290500D01*
Y172600D02*
X435000Y151100D01*
X177244Y410900D02*
X225900D01*
X227000Y412000D01*
X285250Y347500D02*
X305294D01*
X323814Y366020D01*
X394020D01*
X413500Y385500D01*
X353000Y316500D02*
X387500D01*
X413500Y290500D01*
X330850Y339250D02*
Y347500D01*
Y339250D02*
X348600Y321500D01*
X351250D01*
X353000Y319750D01*
Y316500D02*
Y319750D01*
D59*
X163639Y259271D02*
X163830Y259080D01*
X163639Y259271D02*
Y268681D01*
X163100Y269220D02*
X163639Y268681D01*
D60*
X138000Y389500D02*
D03*
X62000D02*
D03*
X25000Y311200D02*
D03*
Y336600D02*
D03*
Y285800D02*
D03*
Y260400D02*
D03*
X344800Y20750D02*
D03*
X294000D02*
D03*
X319400D02*
D03*
X434000Y97500D02*
D03*
Y72100D02*
D03*
X435000Y201900D02*
D03*
Y176500D02*
D03*
Y227300D02*
D03*
D61*
X25000Y362000D02*
D03*
X434000Y46700D02*
D03*
X435000Y151100D02*
D03*
D62*
X268600Y20750D02*
D03*
D63*
X413500Y385500D02*
D03*
Y420500D02*
D03*
Y290500D02*
D03*
Y325500D02*
D03*
D64*
X174498Y256286D02*
D03*
X235712Y70358D02*
D03*
X322580Y170180D02*
D03*
X308610Y168910D02*
D03*
X157480Y226060D02*
D03*
X132174Y243969D02*
D03*
X163830Y259080D02*
D03*
X95000Y256500D02*
D03*
X159500Y243500D02*
D03*
X140000Y185000D02*
D03*
X200460Y230750D02*
D03*
X284504Y155219D02*
D03*
X277838D02*
D03*
X195500Y246500D02*
D03*
X173821Y279999D02*
D03*
X72500Y117250D02*
D03*
X83500Y165750D02*
D03*
X50905Y221422D02*
D03*
X92750Y292172D02*
D03*
X160750Y339000D02*
D03*
Y357750D02*
D03*
X175500Y339000D02*
D03*
Y357750D02*
D03*
X293250Y71250D02*
D03*
X220750Y22000D02*
D03*
X264500Y51750D02*
D03*
X187500Y76500D02*
D03*
X152000Y136000D02*
D03*
X355750Y246500D02*
D03*
Y261500D02*
D03*
Y282500D02*
D03*
X333250D02*
D03*
X314000D02*
D03*
X379250Y180500D02*
D03*
X333250Y261500D02*
D03*
X147500Y185000D02*
D03*
X309000Y130000D02*
D03*
X118250Y315750D02*
D03*
X119750Y9750D02*
D03*
X92250D02*
D03*
X119750Y22750D02*
D03*
X92250D02*
D03*
X61000D02*
D03*
X119750Y38250D02*
D03*
X92250D02*
D03*
X61000D02*
D03*
X33000D02*
D03*
X194333Y268623D02*
D03*
X90000Y324250D02*
D03*
X227250Y185750D02*
D03*
X257500Y210250D02*
D03*
X219000Y173500D02*
D03*
X215603Y194147D02*
D03*
X148250Y165250D02*
D03*
X353210Y107594D02*
D03*
X363500Y46500D02*
D03*
X208250Y126080D02*
D03*
X274500Y272250D02*
D03*
X248750Y180000D02*
D03*
X254250Y193500D02*
D03*
X266000Y132000D02*
D03*
X232166Y131166D02*
D03*
X258500Y112250D02*
D03*
M02*
