G04*
G04 #@! TF.GenerationSoftware,Altium Limited,Altium Designer,20.2.7 (254)*
G04*
G04 Layer_Color=65535*
%FSLAX44Y44*%
%MOMM*%
G71*
G04*
G04 #@! TF.SameCoordinates,BAD59D02-7682-4231-AD5D-2D7AA58F7FA9*
G04*
G04*
G04 #@! TF.FilePolarity,Positive*
G04*
G01*
G75*
%ADD10C,0.6000*%
%ADD11C,0.2500*%
%ADD12C,0.2540*%
%ADD13C,0.1000*%
%ADD14C,0.1524*%
G36*
X227000Y95500D02*
X224000Y92500D01*
Y95500D01*
X224250Y95750D01*
X227000Y95500D01*
D02*
G37*
G36*
X378180Y271168D02*
X383908Y265440D01*
X378560D01*
X377225Y266775D01*
Y270570D01*
X378180Y271168D01*
D02*
G37*
G36*
Y366167D02*
X383908Y360440D01*
X378560D01*
X377225Y361775D01*
Y365570D01*
X378180Y366167D01*
D02*
G37*
D10*
X218000Y216750D02*
G03*
X218000Y216750I-3000J0D01*
G01*
D11*
X195500Y229750D02*
G03*
X195500Y229750I-1250J0D01*
G01*
X195200Y347000D02*
G03*
X195200Y347000I-1250J0D01*
G01*
X117590Y214002D02*
G03*
X117590Y214002I-1250J0D01*
G01*
X276250Y347500D02*
G03*
X276250Y347500I-1250J0D01*
G01*
X371750Y124000D02*
G03*
X371750Y124000I-1250J0D01*
G01*
D12*
X157500Y301750D02*
G03*
X157500Y301750I-1000J0D01*
G01*
D13*
X153248Y305698D02*
Y321798D01*
X205500Y164250D02*
X267500D01*
X205500Y226250D02*
X267500D01*
Y164250D02*
Y226250D01*
X205500Y164250D02*
Y226250D01*
X159892Y279000D02*
Y281054D01*
Y282685D01*
X172177Y296702D02*
X175717D01*
X189103Y280000D02*
Y283500D01*
X171500Y263250D02*
X175500D01*
X195000Y364000D02*
Y377000D01*
Y364000D02*
X259000D01*
Y377000D01*
X169250Y204500D02*
Y216500D01*
Y116500D02*
Y182500D01*
X17250Y216500D02*
X169250D01*
X17250Y205500D02*
Y216500D01*
X18250Y112500D02*
Y182500D01*
X17925Y54025D02*
X170250D01*
X17925D02*
Y80253D01*
X170250Y54025D02*
Y80253D01*
X39250Y328750D02*
X39750Y328250D01*
X39250Y328750D02*
Y449750D01*
X160500D01*
Y328250D02*
Y449750D01*
X39750Y328250D02*
X160500D01*
X51750Y405750D02*
X62500D01*
X57000Y400750D02*
Y410500D01*
X38750Y248250D02*
X123500D01*
Y299750D01*
X38500D02*
X123500D01*
X38500Y248500D02*
Y299750D01*
X338002Y308452D02*
Y324552D01*
X299952Y231748D02*
X316052D01*
X216198Y274002D02*
X232298D01*
X101998Y225448D02*
Y241548D01*
X279202Y116248D02*
X295302D01*
X354698Y197252D02*
X370798D01*
X327198Y197002D02*
X343298D01*
X229952Y43498D02*
X246052D01*
X190452Y44248D02*
X206552D01*
X305952Y78498D02*
X322052D01*
X333560Y78536D02*
X349660D01*
X243840Y273964D02*
X259940D01*
X62286Y306340D02*
Y322440D01*
X249651Y305756D02*
Y310007D01*
X224401Y308757D02*
Y324757D01*
X247526Y307882D02*
X251775D01*
X183994Y422150D02*
X188244D01*
X169244Y396900D02*
X185244D01*
X186119Y420025D02*
Y424276D01*
X134202Y276748D02*
X150302D01*
X160002Y228452D02*
Y244552D01*
X287498Y308198D02*
Y324298D01*
X254250Y82750D02*
Y95750D01*
X224250D02*
X254250D01*
X224250Y70750D02*
Y95750D01*
Y70750D02*
X254250D01*
Y82750D01*
X11250Y374750D02*
X37000D01*
X11250Y247250D02*
Y374750D01*
Y247250D02*
X37000D01*
Y374750D01*
X340050Y364500D02*
Y377500D01*
X276050Y364500D02*
X340050D01*
X276050D02*
Y377500D01*
X364000Y122500D02*
Y127250D01*
X359250Y122500D02*
X364000D01*
X320000D02*
X324750D01*
X320000D02*
Y127250D01*
Y161750D02*
Y166500D01*
X324750D01*
X364000Y161750D02*
Y166500D01*
X359250D02*
X364000D01*
X256350Y7000D02*
Y33000D01*
Y7000D02*
X358850D01*
Y33000D01*
X256350D02*
X358850D01*
X378250Y360750D02*
X448750D01*
Y443500D01*
X377750D02*
X448750D01*
X377750Y361250D02*
Y443500D01*
X378250Y265750D02*
X448750D01*
Y348500D01*
X377750D02*
X448750D01*
X377750Y266250D02*
Y348500D01*
X446750Y33700D02*
Y111200D01*
X421000D02*
X446750D01*
X421000Y33450D02*
Y111200D01*
Y33450D02*
X446500D01*
X446750Y33700D01*
X422750Y138850D02*
Y241350D01*
X448750D01*
Y138850D02*
Y241350D01*
X422750Y138850D02*
X448750D01*
D14*
X182654Y324693D02*
X181807Y325539D01*
X180114D01*
X179268Y324693D01*
Y321307D01*
X180114Y320461D01*
X181807D01*
X182654Y321307D01*
X184346D02*
X185193Y320461D01*
X186886D01*
X187732Y321307D01*
Y324693D01*
X186886Y325539D01*
X185193D01*
X184346Y324693D01*
Y323846D01*
X185193Y323000D01*
X187732D01*
X433153Y129239D02*
X431460D01*
X432307D01*
Y125007D01*
X431460Y124160D01*
X430614D01*
X429768Y125007D01*
X434846Y129239D02*
X438232D01*
Y128392D01*
X434846Y125007D01*
Y124160D01*
X180614Y258039D02*
Y257193D01*
X182307Y255500D01*
X184000Y257193D01*
Y258039D01*
X182307Y255500D02*
Y252961D01*
X185693D02*
X187386D01*
X186539D01*
Y258039D01*
X185693Y257193D01*
X225192Y107970D02*
Y103738D01*
X226038Y102892D01*
X227731D01*
X228578Y103738D01*
Y107970D01*
X233656D02*
X230270D01*
Y105431D01*
X231963Y106278D01*
X232810D01*
X233656Y105431D01*
Y103738D01*
X232810Y102892D01*
X231117D01*
X230270Y103738D01*
X200518Y255039D02*
Y250807D01*
X201364Y249961D01*
X203057D01*
X203904Y250807D01*
Y255039D01*
X208136Y249961D02*
Y255039D01*
X205596Y252500D01*
X208982D01*
X380518Y158539D02*
Y154307D01*
X381365Y153461D01*
X383057D01*
X383904Y154307D01*
Y158539D01*
X385597Y157693D02*
X386443Y158539D01*
X388136D01*
X388982Y157693D01*
Y156846D01*
X388136Y156000D01*
X387289D01*
X388136D01*
X388982Y155154D01*
Y154307D01*
X388136Y153461D01*
X386443D01*
X385597Y154307D01*
X190768Y447539D02*
Y443307D01*
X191614Y442461D01*
X193307D01*
X194154Y443307D01*
Y447539D01*
X199232Y442461D02*
X195847D01*
X199232Y445846D01*
Y446693D01*
X198386Y447539D01*
X196693D01*
X195847Y446693D01*
X271614Y445039D02*
Y440807D01*
X272461Y439961D01*
X274154D01*
X275000Y440807D01*
Y445039D01*
X276693Y439961D02*
X278386D01*
X277539D01*
Y445039D01*
X276693Y444193D01*
X70768Y289961D02*
Y295039D01*
X73307D01*
X74154Y294193D01*
Y292500D01*
X73307Y291654D01*
X70768D01*
X72461D02*
X74154Y289961D01*
X78386D02*
Y295039D01*
X75846Y292500D01*
X79232D01*
X238268Y297461D02*
Y302539D01*
X240807D01*
X241654Y301693D01*
Y300000D01*
X240807Y299154D01*
X238268D01*
X239961D02*
X241654Y297461D01*
X243346Y301693D02*
X244193Y302539D01*
X245886D01*
X246732Y301693D01*
Y300846D01*
X245886Y300000D01*
X245039D01*
X245886D01*
X246732Y299154D01*
Y298307D01*
X245886Y297461D01*
X244193D01*
X243346Y298307D01*
X342376Y39423D02*
Y44502D01*
X344915D01*
X345762Y43655D01*
Y41962D01*
X344915Y41116D01*
X342376D01*
X344069D02*
X345762Y39423D01*
X350840D02*
X347454D01*
X350840Y42809D01*
Y43655D01*
X349994Y44502D01*
X348301D01*
X347454Y43655D01*
X366654Y20039D02*
X364961D01*
X365807D01*
Y15807D01*
X364961Y14961D01*
X364114D01*
X363268Y15807D01*
X371732Y20039D02*
X370039Y19193D01*
X368346Y17500D01*
Y15807D01*
X369193Y14961D01*
X370886D01*
X371732Y15807D01*
Y16654D01*
X370886Y17500D01*
X368346D01*
X15670Y386950D02*
X13977D01*
X14823D01*
Y382718D01*
X13977Y381872D01*
X13131D01*
X12284Y382718D01*
X20748Y386950D02*
X17362D01*
Y384411D01*
X19055Y385258D01*
X19902D01*
X20748Y384411D01*
Y382718D01*
X19902Y381872D01*
X18209D01*
X17362Y382718D01*
X359154Y438039D02*
X357461D01*
X358307D01*
Y433807D01*
X357461Y432961D01*
X356614D01*
X355768Y433807D01*
X363386Y432961D02*
Y438039D01*
X360846Y435500D01*
X364232D01*
X355654Y345039D02*
X353961D01*
X354807D01*
Y340807D01*
X353961Y339961D01*
X353115D01*
X352268Y340807D01*
X357346Y344193D02*
X358193Y345039D01*
X359886D01*
X360732Y344193D01*
Y343346D01*
X359886Y342500D01*
X359039D01*
X359886D01*
X360732Y341654D01*
Y340807D01*
X359886Y339961D01*
X358193D01*
X357346Y340807D01*
X426952Y253512D02*
X425259D01*
X426105D01*
Y249280D01*
X425259Y248434D01*
X424412D01*
X423566Y249280D01*
X432030Y248434D02*
X428644D01*
X432030Y251820D01*
Y252666D01*
X431184Y253512D01*
X429491D01*
X428644Y252666D01*
X11400Y231694D02*
X9707D01*
X10553D01*
Y227462D01*
X9707Y226616D01*
X8860D01*
X8014Y227462D01*
X13092Y226616D02*
X14785D01*
X13939D01*
Y231694D01*
X13092Y230848D01*
X197538Y83693D02*
X196691Y84539D01*
X194998D01*
X194152Y83693D01*
Y80307D01*
X194998Y79461D01*
X196691D01*
X197538Y80307D01*
X199230Y79461D02*
X200923D01*
X200077D01*
Y84539D01*
X199230Y83693D01*
X203462Y84539D02*
X206848D01*
Y83693D01*
X203462Y80307D01*
Y79461D01*
X271038Y62943D02*
X270191Y63789D01*
X268498D01*
X267652Y62943D01*
Y59557D01*
X268498Y58711D01*
X270191D01*
X271038Y59557D01*
X272731Y58711D02*
X274423D01*
X273577D01*
Y63789D01*
X272731Y62943D01*
X280348Y63789D02*
X278655Y62943D01*
X276963Y61250D01*
Y59557D01*
X277809Y58711D01*
X279502D01*
X280348Y59557D01*
Y60404D01*
X279502Y61250D01*
X276963D01*
X305288Y44693D02*
X304441Y45539D01*
X302749D01*
X301902Y44693D01*
Y41307D01*
X302749Y40461D01*
X304441D01*
X305288Y41307D01*
X306980Y40461D02*
X308673D01*
X307827D01*
Y45539D01*
X306980Y44693D01*
X314598Y45539D02*
X311212D01*
Y43000D01*
X312905Y43846D01*
X313752D01*
X314598Y43000D01*
Y41307D01*
X313752Y40461D01*
X312059D01*
X311212Y41307D01*
X327638Y231330D02*
X326791Y232176D01*
X325098D01*
X324252Y231330D01*
Y227944D01*
X325098Y227098D01*
X326791D01*
X327638Y227944D01*
X329330Y227098D02*
X331023D01*
X330177D01*
Y232176D01*
X329330Y231330D01*
X336102Y227098D02*
Y232176D01*
X333562Y229637D01*
X336948D01*
X132193Y233962D02*
X133039Y234809D01*
Y236502D01*
X132193Y237348D01*
X128807D01*
X127961Y236502D01*
Y234809D01*
X128807Y233962D01*
X127961Y232270D02*
Y230577D01*
Y231423D01*
X133039D01*
X132193Y232270D01*
Y228038D02*
X133039Y227191D01*
Y225498D01*
X132193Y224652D01*
X131347D01*
X130500Y225498D01*
Y226345D01*
Y225498D01*
X129654Y224652D01*
X128807D01*
X127961Y225498D01*
Y227191D01*
X128807Y228038D01*
X136038Y252443D02*
X135191Y253289D01*
X133498D01*
X132652Y252443D01*
Y249057D01*
X133498Y248211D01*
X135191D01*
X136038Y249057D01*
X137731Y248211D02*
X139423D01*
X138577D01*
Y253289D01*
X137731Y252443D01*
X145348Y248211D02*
X141962D01*
X145348Y251596D01*
Y252443D01*
X144502Y253289D01*
X142809D01*
X141962Y252443D01*
X355070Y231584D02*
X354223Y232430D01*
X352531D01*
X351684Y231584D01*
Y228198D01*
X352531Y227352D01*
X354223D01*
X355070Y228198D01*
X356762Y227352D02*
X358455D01*
X357609D01*
Y232430D01*
X356762Y231584D01*
X360994D02*
X361841Y232430D01*
X363534D01*
X364380Y231584D01*
Y228198D01*
X363534Y227352D01*
X361841D01*
X360994Y228198D01*
Y231584D01*
X286404Y82693D02*
X285557Y83539D01*
X283864D01*
X283018Y82693D01*
Y79307D01*
X283864Y78461D01*
X285557D01*
X286404Y79307D01*
X288097Y82693D02*
X288943Y83539D01*
X290636D01*
X291482Y82693D01*
Y81846D01*
X290636Y81000D01*
X291482Y80154D01*
Y79307D01*
X290636Y78461D01*
X288943D01*
X288097Y79307D01*
Y80154D01*
X288943Y81000D01*
X288097Y81846D01*
Y82693D01*
X288943Y81000D02*
X290636D01*
X60904Y236193D02*
X60057Y237039D01*
X58365D01*
X57518Y236193D01*
Y232807D01*
X58365Y231961D01*
X60057D01*
X60904Y232807D01*
X62596Y237039D02*
X65982D01*
Y236193D01*
X62596Y232807D01*
Y231961D01*
X216654Y304193D02*
X215807Y305039D01*
X214114D01*
X213268Y304193D01*
Y300807D01*
X214114Y299961D01*
X215807D01*
X216654Y300807D01*
X221732Y305039D02*
X220039Y304193D01*
X218346Y302500D01*
Y300807D01*
X219193Y299961D01*
X220886D01*
X221732Y300807D01*
Y301654D01*
X220886Y302500D01*
X218346D01*
X300460Y266128D02*
X299613Y266974D01*
X297920D01*
X297074Y266128D01*
Y262742D01*
X297920Y261896D01*
X299613D01*
X300460Y262742D01*
X305538Y266974D02*
X302152D01*
Y264435D01*
X303845Y265282D01*
X304692D01*
X305538Y264435D01*
Y262742D01*
X304692Y261896D01*
X302999D01*
X302152Y262742D01*
X170666Y435546D02*
X169819Y436392D01*
X168127D01*
X167280Y435546D01*
Y432160D01*
X168127Y431314D01*
X169819D01*
X170666Y432160D01*
X174898Y431314D02*
Y436392D01*
X172358Y433853D01*
X175744D01*
X219154Y334193D02*
X218307Y335039D01*
X216614D01*
X215768Y334193D01*
Y330807D01*
X216614Y329961D01*
X218307D01*
X219154Y330807D01*
X220846Y334193D02*
X221693Y335039D01*
X223386D01*
X224232Y334193D01*
Y333346D01*
X223386Y332500D01*
X222539D01*
X223386D01*
X224232Y331654D01*
Y330807D01*
X223386Y329961D01*
X221693D01*
X220846Y330807D01*
X328168Y295200D02*
X327329Y296053D01*
X325636Y296068D01*
X324782Y295228D01*
X324754Y291843D01*
X325593Y290989D01*
X327286Y290975D01*
X328139Y291814D01*
X333210Y290925D02*
X329825Y290954D01*
X333239Y294311D01*
X333246Y295157D01*
X332407Y296011D01*
X330714Y296025D01*
X329861Y295186D01*
X297500Y293693D02*
X296654Y294539D01*
X294961D01*
X294114Y293693D01*
Y290307D01*
X294961Y289461D01*
X296654D01*
X297500Y290307D01*
X299193Y289461D02*
X300886D01*
X300039D01*
Y294539D01*
X299193Y293693D01*
X43268Y242539D02*
Y237461D01*
X45807D01*
X46654Y238307D01*
Y239154D01*
X45807Y240000D01*
X43268D01*
X45807D01*
X46654Y240846D01*
Y241693D01*
X45807Y242539D01*
X43268D01*
X51732Y237461D02*
X48346D01*
X51732Y240846D01*
Y241693D01*
X50886Y242539D01*
X49193D01*
X48346Y241693D01*
X28365Y414789D02*
Y409711D01*
X30904D01*
X31750Y410557D01*
Y411404D01*
X30904Y412250D01*
X28365D01*
X30904D01*
X31750Y413096D01*
Y413943D01*
X30904Y414789D01*
X28365D01*
X33443Y409711D02*
X35136D01*
X34289D01*
Y414789D01*
X33443Y413943D01*
M02*
