M48
;Layer_Color=9474304
;FILE_FORMAT=4:4
METRIC,LZ
;TYPE=PLATED
T1F00S00C0.3000
T2F00S00C0.6500
T3F00S00C1.0000
T4F00S00C3.0000
;TYPE=NON_PLATED
T5F00S00C0.9000
%
T01
X0022075Y00022
X0011975Y0002275
Y0000975
X0009225
Y0002275
X00061
Y0003825
X00033
X0009225
X0011975
X000725Y0011725
X000835Y0016575
X00050905Y00221422
X00095Y002565
X0009275Y00292172
X0009Y0032425
X0011825Y0031575
X0016075Y00339
X001755
Y0035775
X0016075
X00173821Y00279999
X00174498Y00256286
X0016383Y0025908
X001595Y002435
X0015748Y0022606
X00132174Y00243969
X001955Y002465
X0020046Y0023075
X00194333Y00268623
X002745Y0027225
X00314Y002825
X0033325
Y002615
X0035575
Y002465
Y002825
X0037925Y001805
X0032258Y0017018
X0030861Y0016891
X00284504Y00155219
X00277838
X00266Y00132
X002585Y0011225
X00232166Y00131166
X0020825Y0012608
X00219Y001735
X0022725Y0018575
X00215603Y00194147
X0025425Y001935
X0024875Y0018
X002575Y0021025
X00309Y0013
X0035321Y00107594
X003635Y000465
X0029325Y0007125
X002645Y0005175
X00235712Y00070358
X001875Y000765
X00152Y00136
X0014825Y0016525
X001475Y00185
X0014
T02
X004135Y002905
Y003255
Y003855
Y004205
T03
X002686Y0002075
X00294
X003194
X003448
X00025Y002604
Y002858
Y003112
Y003366
Y00362
X00062Y003895
X00138
X00435Y002273
Y002019
Y001765
Y001511
X00434Y000975
Y000721
Y000467
T04
X00433Y0002
X0002275
X00021Y004335
T05
X0004434Y00095253
X0012434
M30
